<?xml version="1.0" encoding="utf-8"?><svg xmlns="http://www.w3.org/2000/svg" xmlns:xlink="http://www.w3.org/1999/xlink"><symbol viewBox="0 0 72 72" id="arch_int" xmlns="http://www.w3.org/2000/svg"><path d="M57.5 0c.511.326.883.744.658 1.39-.221.64-.767.725-1.373.725-17.9-.007-35.8-.006-53.7-.006H2.15v67.72h67.682V32.446H67.33v2.008c-.005 1.721-.859 2.596-2.592 2.6-4.264.01-8.528.004-12.792.004h-.877v2.545h13.516c1.936.002 2.744.804 2.745 2.718v22.285c0 1.909-.827 2.732-2.741 2.732H37.67c-1.915 0-2.732-.815-2.734-2.734-.003-2.672 0-5.343 0-8.015v-.87h-2.56v.791c0 2.742.003 5.484-.001 8.225-.003 1.747-.849 2.602-2.574 2.602-7.52.002-15.041.002-22.562 0-1.715 0-2.587-.878-2.588-2.602-.002-7.522-.002-15.044 0-22.566 0-1.687.857-2.562 2.544-2.563 7.545-.006 15.089-.006 22.633 0 1.709.001 2.538.843 2.548 2.543.003.674 0 1.348 0 2.068h2.56c0-.414.023-.825-.005-1.232-.168-2.491.641-3.58 3.415-3.386.389.027.781.004 1.215.004v-2.546c-.7 0-1.371.007-2.042-.001-1.737-.02-2.57-.862-2.584-2.603-.018-2.27-.018-2.27-2.559-2.008 0 .646.002 1.313 0 1.98-.006 1.79-.825 2.614-2.616 2.631-.351.003-.705.016-1.054-.018-.678-.067-1.054-.485-1.027-1.098.025-.58.406-.94 1.064-.984.257-.018.516-.002.773-.009.228-.005.456-.02.752-.034 0-1.112-.006-2.163.001-3.214.008-1.086.346-1.418 1.446-1.422 1.335-.005 2.671-.009 4.006.002.96.008 1.307.358 1.321 1.326.014.914.023 1.828-.004 2.741-.013.457.143.623.604.61a65.378 65.378 0 012.811-.004c.877.014 1.243.366 1.255 1.245.018 1.406.016 2.812 0 4.218-.01.91-.382 1.287-1.288 1.303-1.095.019-2.19.005-3.375.005 0 1.103.004 2.126 0 3.15-.006 1.176-.334 1.504-1.505 1.507-1.312.004-2.624.01-3.936-.002-.942-.009-1.321-.387-1.333-1.33-.014-1.073-.003-2.147-.003-3.272H18.415v8.755c0 2.058-.768 2.818-2.85 2.819H6.81v11.82h10.647c0-.748.002-1.49 0-2.232-.004-.769.264-1.401.85-1.924.178-.158.301-.46.315-.704.045-.841-.01-1.688.047-2.529.163-2.417 2.18-4.243 4.6-4.205 2.4.038 4.359 1.968 4.44 4.38.013.422.003.844.009 1.265.012.818-.137 1.627.706 2.264.338.254.4.966.452 1.483.073.716.018 1.444.018 2.214h1.326c.015-.246.045-.513.045-.781.003-3.093.001-6.186.003-9.28 0-1.236.308-1.544 1.527-1.545 1.265-.002 2.53-.002 3.795 0 1.124.002 1.452.328 1.453 1.472.005 3.093.002 6.186.002 9.28v.86h18.811V41.714h-2.39c-1.102 0-2.203.012-3.304-.005-.874-.014-1.237-.386-1.243-1.253-.01-1.359-.005-2.718-.002-4.077.002-1.106.313-1.427 1.413-1.427 4.662-.004 9.325-.002 13.987-.002h.904c0-1.16-.004-2.232.001-3.303.005-1.009.342-1.36 1.342-1.367 1.359-.01 2.718-.01 4.077 0 .987.008 1.338.374 1.338 1.38.002 12.63.002 25.26 0 37.89 0 1.544-.901 2.439-2.452 2.44-22.352.001-44.703-.003-67.055.01C1.215 72 .478 71.374 0 70.303V1.688A2.925 2.925 0 011.687 0h55.814zm7.676 60.537V46.422h-7.095v14.115h7.095zM6.8 41.754v9.427h9.457v-9.416h-3.66c0 .702.004 1.353-.002 2.004-.008.947-.375 1.424-1.077 1.413-.679-.011-1.02-.464-1.029-1.38-.006-.674 0-1.346 0-2.048h-3.69zm18.803 18.781c0-.874.024-1.71-.006-2.543-.043-1.17-.931-2.123-2.086-2.29-1.131-.163-2.375.521-2.605 1.648-.208 1.025-.144 2.105-.202 3.185h4.899zm1.126 4.674v-2.474h-7.106v2.474h7.106zm31.314-20.991h7.12v-2.443h-7.12v2.443zm7.153 18.509h-7.124v2.444h7.124v-2.444z"/><path d="M70.294 0C71.552.527 72.01 1.464 72 2.826c-.044 6.233-.019 12.466-.02 18.699 0 1.246-.291 1.543-1.515 1.545-1.312.002-2.624.005-3.936-.002-.952-.005-1.305-.36-1.305-1.323-.004-4.686-.002-9.373-.002-14.06V6.81h-4.896c0 .778.007 1.543-.002 2.308-.017 1.398-.885 2.288-2.281 2.292-3.843.012-7.685.012-11.527 0-1.355-.005-2.228-.897-2.25-2.251-.012-.768-.002-1.537-.002-2.352h-7.218v.847l-.001 13.779c0 1.38-.26 1.636-1.64 1.637h-3.514c-1.357 0-1.623-.272-1.623-1.66V6.814h-2.55v.842l-.001 19.823c0 1.765-.82 2.593-2.567 2.594-4.428.002-8.856.002-13.284 0-1.691-.002-2.56-.864-2.56-2.55-.003-6.607-.002-13.215-.002-19.823v-.89h-2.5v28.14h17.15c1.077 0 1.593.34 1.595 1.043.001.704-.53 1.065-1.589 1.065-5.53.002-11.059.004-16.588 0-1.912-.002-2.721-.827-2.721-2.752V7.382c0-1.912.822-2.73 2.74-2.73h22.282c1.885 0 2.702.81 2.703 2.683.002 4.241 0 8.483 0 12.724v.864h2.522c.013-.271.036-.54.036-.808.002-4.241 0-8.483.002-12.724.001-1.926.813-2.74 2.727-2.74h26.92c1.922 0 2.747.819 2.747 2.726v13.536h2.5V2.14c-.23-.01-.475-.03-.721-.03-2.437-.002-4.873-.007-7.31.003-.593.002-1.135-.05-1.385-.701-.255-.663.152-1.047.6-1.412h9.281zM11.452 27.916h14.125v-11.79H11.452v11.79zM25.567 13.93V6.76h-2.503c0 .836.006 1.581 0 2.326-.015 1.436-.884 2.313-2.324 2.325-1.405.012-2.81.006-4.216.003-1.718-.004-2.548-.825-2.558-2.531-.004-.691 0-1.383 0-2.084h-2.507v7.13h14.108zm32.62-7.125H46.425V9.26h11.762V6.805zm-37.262.012h-4.807v2.444h4.807V6.817z"/><path d="M52.301 25.414c-2.6 0-5.199.003-7.799 0-1.735-.003-2.586-.857-2.588-2.591-.003-2.132-.006-4.263 0-6.395.006-1.554.884-2.455 2.433-2.458 5.293-.01 10.586-.009 15.88 0 1.56.003 2.44.89 2.447 2.444.01 2.179.009 4.357 0 6.535-.006 1.582-.897 2.459-2.503 2.463-2.623.007-5.247.002-7.87.002zm-8.227-9.297v7.131h16.44v-7.132h-2.498c0 .757.008 1.476-.002 2.195-.022 1.532-.87 2.418-2.383 2.431-2.223.02-4.446.02-6.669 0-1.506-.012-2.373-.91-2.39-2.425-.009-.72-.002-1.44-.002-2.2h-2.496zm11.833 2.49c0-.7-.025-1.326.008-1.95.026-.474-.165-.593-.61-.59-2.032.02-4.063.008-6.094.012-.156 0-.312.041-.47.064v2.465h7.166zm4.667 31.343c-.006-1.13.279-1.578 1.007-1.596.756-.018 1.097.48 1.094 1.604 0 .256.016.52-.038.767-.126.575-.502.91-1.098.864-.587-.047-.925-.406-.963-1.008-.013-.21-.002-.42-.002-.63zm-.005 7.024c0-.164-.005-.328.001-.49.03-.718.425-1.151 1.044-1.148.586.002 1.006.422 1.055 1.085.024.325.018.654.004.98-.033.735-.488 1.22-1.1 1.194-.601-.026-.98-.478-1.004-1.2-.005-.14 0-.281 0-.421z"/></symbol><symbol viewBox="0 0 27 24" id="brakes" xmlns="http://www.w3.org/2000/svg"><path d="M26.65 3.73c-.156.556-.554.853-1.067 1.076-1.132.494-2.148 1.164-2.948 2.123-.916 1.096-1.382 2.39-1.598 3.781-.089.57-.125 1.148-.188 1.758h3.945c.911.002 1.436.525 1.437 1.437v8.143c0 .921-.53 1.448-1.457 1.448-2.706.002-5.412.002-8.117 0-.93 0-1.457-.524-1.456-1.448 0-2.393-.013-4.786.01-7.18.018-1.986.15-3.965.59-5.912.53-2.352 1.735-4.304 3.483-5.937C20.59 1.8 22.087.874 23.721.163c.732-.319 1.425-.081 1.773.63.398.817.772 1.645 1.156 2.468v.468zM5.717 12.468h.317c1.205 0 2.411-.003 3.617.001.844.003 1.38.54 1.38 1.388.004 2.75.005 5.499 0 8.249 0 .842-.538 1.386-1.385 1.388-2.75.006-5.499.006-8.249 0C.536 23.493.004 22.95.004 22.09c0-2.48-.015-4.962.013-7.442.021-1.822.177-3.633.545-5.425.495-2.416 1.664-4.44 3.441-6.133C5.344 1.81 6.885.846 8.583.126c.71-.3 1.386-.053 1.73.637.35.706.69 1.417 1.018 2.134.335.735.064 1.448-.685 1.789-.889.403-1.733.872-2.474 1.514-1.174 1.017-1.832 2.328-2.18 3.815a10.337 10.337 0 00-.275 2.453z"/></symbol><symbol viewBox="0 0 31 30" id="card" xmlns="http://www.w3.org/2000/svg"><path d="M.002 1.071A1.071 1.071 0 011.073 0h.939c1.557 0 2.453 1.013 2.971 2.025.354.692.609 1.536.82 2.268H27.86a2.142 2.142 0 012.06 2.726l-3.204 11.3a4.285 4.285 0 01-4.122 3.114H11.712a4.285 4.285 0 01-4.134-3.156L6.202 13.23a1.093 1.093 0 01-.021-.068L3.972 5.67l-.214-.722c-.214-.741-.403-1.397-.686-1.947-.34-.665-.653-.857-1.062-.857h-.94A1.071 1.071 0 010 1.073l.002-.002zm8.244 11.513l1.4 5.134a2.142 2.142 0 002.066 1.576h10.884a2.142 2.142 0 002.059-1.557L27.86 6.436H6.436l1.81 6.146v.002zm6.76 14.202a3.214 3.214 0 11-6.428 0 3.214 3.214 0 016.427 0zm-2.143 0a1.071 1.071 0 10-2.143 0 1.071 1.071 0 002.143 0zm12.854 0a3.214 3.214 0 11-6.428 0 3.214 3.214 0 016.428 0zm-2.142 0a1.071 1.071 0 10-2.143 0 1.071 1.071 0 002.143 0z"/></symbol><symbol viewBox="0 0 24 24" id="close" xmlns="http://www.w3.org/2000/svg"><path d="M0 0h24v24H0V0z"/><path d="M18.3 5.71a.996.996 0 00-1.41 0L12 10.59 7.11 5.7A.996.996 0 105.7 7.11L10.59 12 5.7 16.89a.996.996 0 101.41 1.41L12 13.41l4.89 4.89a.996.996 0 101.41-1.41L13.41 12l4.89-4.89c.38-.38.38-1.02 0-1.4z"/></symbol><symbol viewBox="0 0 16 17" id="fb" xmlns="http://www.w3.org/2000/svg"><g clip-path="url(#clip0_10_4470)"><path d="M6.239 9.907h-.343c-.493 0-.987.004-1.48-.001-.295-.004-.393-.09-.395-.371a114.85 114.85 0 010-2.274c.003-.28.107-.367.397-.369.536-.003 1.071 0 1.607 0h.214v-.23c.013-.685-.012-1.374.046-2.055.146-1.716 1.464-2.957 3.187-3.022.722-.027 1.444-.011 2.166-.01.24.001.342.104.344.344.004.715.004 1.431 0 2.147-.002.244-.102.341-.362.348-.487.011-.975.012-1.462.019-.566.008-.789.222-.799.788-.01.534-.002 1.069-.002 1.623.075.003.139.009.202.009h1.859c.404.001.492.088.493.484v2.13c-.001.333-.084.417-.417.418-.638.003-1.275.001-1.913.001h-.223v5.89c0 .507-.06.565-.573.565H6.71c-.383 0-.47-.087-.47-.464l-.001-5.722v-.248z"/></g></symbol><symbol viewBox="0 0 72 72" id="home_int" xmlns="http://www.w3.org/2000/svg"><path d="M72 8.379A8.376 8.376 0 0063.621 0H8.38A8.376 8.376 0 000 8.379V63.62A8.376 8.376 0 008.379 72H63.62A8.376 8.376 0 0072 63.621V8.38zm-8.378 59.889H28.925V39.725a1.861 1.861 0 00-1.863-1.861h-13.34a1.862 1.862 0 100 3.724H25.2v26.69H8.378a4.652 4.652 0 01-4.655-4.654v-44.38h18.685a1.862 1.862 0 100-3.723H3.724V8.38a4.652 4.652 0 014.654-4.655h55.243a4.652 4.652 0 014.655 4.654v19.243H49.713V11.795a1.862 1.862 0 00-3.723 0v15.827H32.649a1.862 1.862 0 100 3.724h35.627v17.38h-21.97a1.862 1.862 0 00-1.862 1.863v10.669a1.862 1.862 0 103.723 0V52.45h20.11v11.171a4.652 4.652 0 01-4.656 4.655v-.009z"/></symbol><symbol viewBox="0 0 16 16" id="in" xmlns="http://www.w3.org/2000/svg"><path d="M5.67 5.316h3.162v1.436c.044-.023.066-.027.073-.04.706-1.133 1.761-1.625 3.064-1.655.729-.017 1.441.074 2.108.393.864.412 1.349 1.13 1.617 2.019.216.715.29 1.452.295 2.193.014 2.052.01 4.104.011 6.157 0 .031-.004.063-.008.107h-3.31v-.218c-.002-1.741.004-3.482-.008-5.222a6.802 6.802 0 00-.105-1.18c-.201-1.093-.913-1.461-1.928-1.342-.926.108-1.437.649-1.581 1.649a8.017 8.017 0 00-.079 1.105c-.008 1.663-.003 3.326-.003 4.989v.246H5.669V5.316zM.273 15.955V5.32h3.295v10.636H.273zM3.838 1.91c.006 1.059-.854 1.936-1.904 1.942C.88 3.858 0 2.979 0 1.918 0 .873.86.009 1.908 0a1.92 1.92 0 011.93 1.91z"/></symbol><symbol viewBox="0 0 16 16" id="inst" xmlns="http://www.w3.org/2000/svg"><path d="M3.911 7.99a4.089 4.089 0 108.178 0c-.224-5.437-7.953-5.439-8.178 0zm1.259 0a2.83 2.83 0 115.66 0c-.154 3.763-5.496 3.765-5.66 0z"/><path d="M12.25 0h-8.5A3.753 3.753 0 000 3.75v8.5A3.753 3.753 0 003.75 16h8.5A3.753 3.753 0 0016 12.25v-8.5A3.753 3.753 0 0012.25 0zm2.506 12.25a2.503 2.503 0 01-2.505 2.505H3.749a2.503 2.503 0 01-2.505-2.505v-8.5A2.503 2.503 0 013.75 1.243h8.502a2.503 2.503 0 012.505 2.505v8.502z"/><path d="M12.445 2.845a.712.712 0 100 1.423.712.712 0 000-1.423z"/></symbol><symbol viewBox="0 0 72 72" id="office_int" xmlns="http://www.w3.org/2000/svg"><path d="M4.803 13.996c-1.089.188-2.073.352-3.055.53-1.156.21-1.737-.253-1.742-1.424a679.34 679.34 0 010-5.57c.003-.95.326-1.328 1.245-1.49C12.688 4.03 24.12 1.989 35.57.05c1.104-.187 2.317.212 3.468.413C49.422 2.27 59.803 4.099 70.186 5.915c1.63.285 1.811.484 1.811 2.174 0 1.679.008 3.357-.002 5.036-.007 1.128-.598 1.604-1.695 1.412-6.887-1.208-13.775-2.413-20.663-3.62-.099-.017-.196-.041-.294-.062-.949-.2-1.396-.719-1.26-1.462.14-.76.732-1.095 1.672-.93l19.116 3.344c.216.038.436.046.692.071V8.316c-1.001-.184-2.021-.378-3.043-.558-9.814-1.726-19.631-3.434-29.439-5.192-1.34-.24-2.58.12-3.843.338-7.997 1.38-15.989 2.8-23.982 4.206-2.091.367-4.182.737-6.276 1.082-.416.068-.604.202-.587.67.034.986.01 1.975.01 3.062 1.497-.256 2.917-.493 4.335-.742 9.177-1.608 18.355-3.206 27.527-4.845 1.177-.21 2.304-.234 3.478.001 2.277.456 4.574.813 6.86 1.23.804.147 1.245.755 1.104 1.437-.145.7-.764 1.085-1.548.948-2.56-.445-5.116-.906-7.679-1.331-.405-.068-.842-.035-1.25.037-9.251 1.616-18.5 3.245-27.748 4.873-.07.012-.14.039-.243.069v24.146h3.563v-4.474c0-.458-.007-.916.002-1.374.017-.885.495-1.434 1.224-1.416.704.016 1.165.544 1.17 1.395.011 1.704.004 3.408.004 5.113v.776h2.4V20.016c0-.178.008-.357-.006-.534-.057-.724-.547-1.214-1.2-1.21-.656.004-1.17.493-1.184 1.221-.027 1.424-.01 2.85-.01 4.274 0 .966.011 1.933-.004 2.9-.014.833-.5 1.366-1.204 1.361-.703-.005-1.184-.538-1.188-1.376-.01-2.417-.026-4.834.006-7.25.027-1.992 1.63-3.566 3.567-3.576 1.972-.01 3.569 1.573 3.617 3.608.021.914.003 1.83.003 2.879 1.606-1.492 3.367-2.056 5.353-1.261 1.965.786 2.907 2.375 3.087 4.54h.824c3.574 0 7.149-.001 10.723.001 1.227.001 1.612.392 1.613 1.64.002 3.484 0 6.967 0 10.51h13.15v-8.462c-.953-.106-2.236.294-2.33-1.29-.05-.84.498-1.1 2.324-1.21v-8.466h-4.744v15.261c0 .254.023.516-.028.76-.129.618-.518.978-1.145 1.014-.592.034-1.108-.414-1.205-1.033-.035-.224-.021-.457-.021-.686V17.53c0-1.344.36-1.705 1.697-1.706H60.72c1.32 0 1.677.37 1.677 1.728v20.985c0 1.341-.365 1.707-1.698 1.707H7.202v30.142c-.006 1.03-.433 1.599-1.199 1.6-.77 0-1.2-.564-1.2-1.597V13.996zm32.363 14.092H18.063v4.79h19.103v-4.79zm18.05-1.307c.966.11 2.276-.28 2.334 1.17.067 1.632-1.368 1.21-2.29 1.334v8.474h4.687V18.327h-4.732v8.454zM32.4 35.414H18.063v2.349h14.31c.01-.158.025-.28.026-.4.002-.633.001-1.265.001-1.95zm-8.421-9.85c-.148-1.524-1.197-2.49-2.528-2.409-1.254.077-2.2 1.105-2.19 2.41h4.718zm10.837 12.19h2.33v-2.331h-2.33v2.33z"/><path d="M34.769 62.223v-2.442H12.497c-1.332 0-1.692-.365-1.694-1.71-.001-1.399-.028-2.798.02-4.195.011-.37.155-.87.417-1.067.4-.301.379-.58.28-.964-.226-.885-.454-1.77-.66-2.659-.175-.761.156-1.4.793-1.586.68-.2 1.32.185 1.526.97.297 1.127.548 2.267.845 3.395.047.182.233.325.355.486.165-.144.412-.256.481-.438.28-.733.495-1.49.754-2.232.275-.79.9-1.15 1.551-.925.675.234.963.88.725 1.67-.198.654-.415 1.301-.635 1.987.668.376.778.989.755 1.694-.032.987-.008 1.977.046 3.003.746-2.427 2.276-4.008 4.749-4.654 0-.484-.015-.965.002-1.444.068-1.923 1.57-3.497 3.457-3.528a251.48 251.48 0 017.421-.004c1.928.026 3.463 1.593 3.505 3.556.034 1.626.133 3.267-.02 4.879-.22 2.316.185 4.61.045 6.917-.083 1.356-.374 1.729-1.688 1.733h-.901l-.723 4.357c-.104.627-.193 1.255-.311 1.879-.131.687-.547 1.072-1.246 1.085-.724.014-1.45.014-2.174.002-.835-.014-1.234-.357-1.376-1.194-.305-1.803-.597-3.607-.896-5.41-.037-.223-.086-.444-.134-.688h-7.54c-.19 1.128-.382 2.268-.572 3.41-.15.9-.29 1.804-.449 2.704-.141.801-.536 1.158-1.317 1.177-.724.017-1.45.017-2.174 0-.781-.019-1.179-.374-1.315-1.178-.306-1.802-.597-3.606-.896-5.41-.036-.223-.083-.444-.139-.737-.467 0-.912.021-1.355-.004-.715-.042-1.196-.542-1.2-1.207-.005-.666.475-1.166 1.186-1.221.223-.018.45-.006.674-.006H34.77zm-9.558-4.885c2.836 0 5.558.009 8.28-.005.807-.004 1.288-.463 1.3-1.256.024-1.6.022-3.202 0-4.803-.01-.738-.453-1.238-1.15-1.246a368.275 368.275 0 00-7.267-.002c-.66.006-1.131.422-1.146 1.082-.046 2.05-.017 4.103-.017 6.23zm-11.973-.042h2.316v-2.343h-2.316v2.343zm2.581 7.41l.83 4.865.329-.022.793-4.843H15.82zm14.401-.014l.815 4.868.336-.002.802-4.866H30.22zm-7.475-7.386v-2.173c-1.034.45-1.695 1.12-2.11 2.173h2.11zM45.6 50.068v2.485l-.001 17.62c0 .254.025.515-.022.76-.125.656-.53 1.05-1.192 1.042-.66-.009-1.055-.41-1.168-1.069-.038-.222-.017-.456-.017-.685v-20.9c0-1.399.347-1.75 1.727-1.75h14.616c1.279 0 1.654.38 1.655 1.672v21.053c0 .228.02.465-.029.683-.139.615-.528.993-1.156.996-.662.004-1.068-.383-1.192-1.04-.047-.245-.022-.506-.022-.76V50.067h-13.2zm21.598-5.931l-.001 26.02c0 .255.025.515-.02.762-.118.657-.517 1.056-1.18 1.056-.661 0-1.06-.397-1.18-1.055-.04-.222-.019-.456-.019-.685v-52.27c0-.254-.026-.518.03-.76.144-.612.532-.977 1.169-.976.636 0 1.03.36 1.168.975.06.268.031.557.031.836.002 8.7.002 17.398.002 26.097zM35.999 21.93c-1.9 0-3.8.004-5.7-.003-1.075-.003-1.494-.43-1.496-1.526-.006-2.238-.006-4.477 0-6.715.002-1.096.42-1.522 1.498-1.523 3.8-.005 7.599-.005 11.398 0 1.076 0 1.496.429 1.499 1.524.006 2.239.006 4.477 0 6.715-.003 1.094-.425 1.522-1.5 1.525-1.9.007-3.8.002-5.7.002zm-4.745-7.293v4.79h3.507v-4.79h-3.507zm5.98 4.797h3.507v-4.791h-3.507v4.79z"/><path d="M56.392 58.585c-.014.66-.572 1.205-1.22 1.19-.65-.015-1.181-.58-1.167-1.241.014-.664.567-1.204 1.218-1.19.65.015 1.183.58 1.169 1.24zm-26.4-6.124c.65-.005 1.197.543 1.202 1.206.005.66-.536 1.22-1.186 1.224-.65.005-1.196-.545-1.2-1.207a1.21 1.21 0 011.184-1.223z"/></symbol><symbol viewBox="0 0 71 72" id="rest_int" xmlns="http://www.w3.org/2000/svg"><path d="M68.6 53.24h-8.128v12.99H68.6v-1.363c-.002-.552.16-1.006.802-1.008.629-.002.82.422.817.99-.006 1.778.004 3.556-.005 5.335-.004.708-.271.965-.97.99-.187.007-.374.002-.561.002l-49.198-.001c-.28 0-.617.084-.827-.04-.28-.165-.63-.494-.635-.758-.005-.26.338-.609.615-.766.234-.133.593-.057.896-.057 16.025-.002 32.05-.002 48.074-.002h.942v-1.6H1.666v1.6h.864c3.58 0 7.159 0 10.738.002.256 0 .576-.069.755.055.27.186.615.52.606.78-.01.264-.388.54-.647.759-.098.082-.317.026-.48.027-4.094 0-8.188.002-12.282 0C.194 71.174 0 70.978 0 69.94V44.671c.001-1.053.217-1.27 1.272-1.273 1.561-.004 3.122-.001 4.867-.001-1.53-1.707-1.213-3.669-1.235-5.566-.007-.637.31-.95.946-.944.094 0 .19-.015.28.001 1.8.314 3.224-.27 4.273-1.769.066-.094.162-.168.246-.25.506-.488.994-.564 1.339-.174.448.507.232.95-.2 1.334-.255.226-.535.424-.805.635l.153.222c.832 0 1.664-.007 2.495.002.797.009 1.05.251 1.06 1.052.012.818.1 1.657-.045 2.45-.183 1.007-.567 1.977-.864 2.962h9.295l-.295-3.175c-.595-.116-1.564.17-1.529-.894.032-.951.926-.705 1.503-.817.043-.062.089-.098.092-.137.117-1.443.117-1.443 1.593-1.443h6.878c1.151 0 1.28.124 1.349 1.265.005.09.027.18.047.306.622.143 1.601-.152 1.537.94-.054.923-.884.69-1.492.768l-.326 3.192h5.12c0-.995-.01-1.968.003-2.94.01-.822.282-1.097 1.103-1.099 3.626-.006 7.252-.006 10.878 0 .699.001 1.098.314 1.063.835-.044.665-.5.827-1.081.818-.697-.01-1.393-.002-2.173-.002v2.385h18.739c.016-.169.049-.347.049-.525.003-2.152-.006-4.305.007-6.457.004-.58-.125-1.044-.78-1.12-.524-.062-.842.375-.857 1.117-.008.445.008.89-.016 1.333-.027.497-.307.79-.809.781-.497-.009-.776-.302-.786-.802a23.629 23.629 0 01.006-1.825c.066-1.167.993-2.102 2.156-2.215 1.222-.119 2.315.602 2.613 1.756.086.335.112.693.114 1.04.01 2.036.005 4.071.005 6.107v.853c.493 0 .93-.01 1.365.002.791.023 1.06.283 1.061 1.059.005 5.568 0 11.137.005 16.705 0 .564-.172.999-.8 1.009-.636.01-.82-.434-.82-.992V53.24zm-19.636-8.138h-27.71v21.129h3.227v-.858c0-4.188-.002-8.376.001-12.564.001-.964.225-1.22 1.115-1.222 6.34-.006 12.679-.005 19.018 0 .869.001 1.115.261 1.119 1.147.008 1.684.003 3.369.002 5.053 0 .117.003.236-.014.35-.072.477-.337.796-.831.782-.486-.013-.764-.322-.792-.814-.018-.327-.006-.655-.006-.983v-3.867h-17.93v9.716H44.1c0-.58-.092-1.137.035-1.64.074-.293.478-.657.77-.694.236-.03.588.34.774.612.124.18.055.498.056.754.004 1.397.002 2.794.002 4.228h3.227V45.102zM19.548 66.23v-9.69H1.657v9.69h17.891zm-.021-11.411V45.09H1.664v9.727h17.863zm49.016-3.266v-6.466h-17.85v6.466h17.85zm-9.802 14.72V53.25h-8.056v13.02h8.056zm-27.717-27.71h-6.512c0 1.168-.052 2.286.016 3.397.053.857.686 1.402 1.539 1.424 1.119.03 2.24.03 3.36.002.905-.022 1.55-.634 1.587-1.539.043-1.07.01-2.144.01-3.283zM6.57 38.556c0 .716-.071 1.394.014 2.053a3.152 3.152 0 003.031 2.781c1.657.068 3.034-.952 3.345-2.578.137-.72.093-1.474.133-2.255H6.57zm37.5 26.166h-17.9v1.495h17.903v-1.495zm-4.884-23.72c0 .49-.008.928.002 1.367.015.747.272 1.017 1.008 1.024 1.143.012 2.287 0 3.431.005 1.988.007 2.208.266 2.086-2.247-.002-.04-.042-.08-.082-.15h-6.445zm-4.093-11.478H22.538c-1.12-.001-1.316-.199-1.318-1.298-.002-.795.025-1.59-.01-2.384-.023-.544.178-.922.579-1.274 2.09-1.835 4.157-3.7 6.252-5.53.386-.338.542-.682.54-1.2-.019-5.168-.012-10.336-.01-15.504 0-1.224.16-1.387 1.36-1.387 3.507-.001 7.014-.002 10.521 0 .975.001 1.193.216 1.194 1.203.004 5.215.01 10.43-.01 15.644-.001.538.154.905.561 1.26 2.027 1.767 4.017 3.577 6.047 5.34.538.467.826.955.767 1.689-.059.743-.01 1.495-.014 2.243-.004.957-.236 1.195-1.208 1.196-4.232.005-8.464.002-12.696.002zm10.728-4.896l.07-.177c-.129-.098-.265-.186-.385-.293-1.626-1.444-3.237-2.906-4.884-4.327-.453-.39-.62-.805-.617-1.392.017-5.006.01-10.01.01-15.016v-.805h-9.812v.813c0 4.327-.12 8.659.052 12.98.083 2.094-.437 3.582-2.171 4.801-1.342.944-2.486 2.168-3.837 3.373.387.02.611.041.835.042 1.356.003 2.713-.006 4.07.006.704.006 1.09.323 1.038.848-.06.623-.489.776-1.045.773-1.73-.009-3.461-.003-5.192-.003h-1.03v1.605h24.375v-1.605H34.004c-.233 0-.536.074-.685-.041-.262-.203-.574-.518-.592-.803-.014-.235.329-.556.588-.72.188-.12.5-.057.756-.057 3.671-.002 7.343-.002 11.015-.002h.735z"/><path d="M12.25.946h10.945c1.103.001 1.285.173 1.285 1.242.002 5.707.002 11.415 0 17.122 0 1.038-.189 1.228-1.234 1.228-7.344.003-14.688.003-22.032 0-1.026 0-1.213-.2-1.213-1.248V2.168C0 1.14.196.948 1.234.948 4.906.944 8.578.945 12.249.945zm10.589 17.931V2.62h-9.734v16.257h9.734zM11.385 2.632H1.674v16.227h9.711V2.632zM57.958.946h11.016c1.047.001 1.242.192 1.243 1.213.001 5.73.002 11.461 0 17.192 0 .976-.209 1.186-1.206 1.186-7.367.004-14.734.004-22.101 0-.96 0-1.17-.21-1.17-1.148-.004-5.778-.005-11.555 0-17.333 0-.892.226-1.107 1.133-1.108 3.695-.004 7.39-.002 11.085-.002zm-10.57 1.672V18.86h9.719V2.62h-9.719zm11.458-.003V18.87h9.708V2.615h-9.708zm4.026 57.115c0 .305.103.665-.026.897-.166.298-.519.679-.79.678-.27-.001-.71-.391-.773-.678a4.15 4.15 0 01-.004-1.736c.065-.298.452-.666.757-.738.464-.11.771.26.833.738.036.275.007.56.007.84h-.004zm-27.768-4.874c1.542 0 3.084.01 4.626-.005.589-.006 1.073.156 1.078.808.005.655-.49.823-1.07.822a3034.92 3034.92 0 00-9.251 0c-.578 0-1.04-.155-1.088-.815-.037-.51.374-.805 1.08-.808 1.541-.005 3.084-.001 4.625-.002zm6.568-8.977a2.438 2.438 0 012.416 2.467c-.017 1.335-1.147 2.44-2.479 2.424-1.328-.016-2.442-1.161-2.418-2.485a2.446 2.446 0 012.481-2.406zm-.871 2.58c.194.168.442.536.765.624.462.125.806-.188.856-.688.051-.498-.203-.817-.7-.867-.494-.05-.79.208-.921.931zm-14.674-.144a2.438 2.438 0 012.447-2.436 2.446 2.446 0 012.451 2.436c0 1.33-1.117 2.45-2.452 2.456-1.324.007-2.45-1.124-2.446-2.456zm2.405-.808c-.457.07-.767.31-.745.824.021.499.314.788.808.775.492-.013.775-.312.767-.813-.008-.512-.326-.74-.83-.786zm9.008.786a2.452 2.452 0 01-2.43 2.476c-1.309.01-2.415-1.08-2.436-2.399-.022-1.38 1.032-2.477 2.396-2.49 1.38-.015 2.46 1.039 2.47 2.413zm-2.277-.894h-.32c-.217.3-.563.58-.617.907-.074.45.258.789.75.803.529.015.882-.32.812-.809-.047-.324-.406-.602-.625-.901zm-24.68 14.788c-.535 0-1.072.012-1.607-.005-.495-.016-.794-.302-.803-.788-.01-.49.292-.794.782-.805a86.606 86.606 0 013.284-.004c.488.008.806.301.804.788-.001.518-.323.805-.852.813-.536.008-1.072.002-1.608.001zm0-13.061c.537 0 1.074-.016 1.61.005.515.02.85.299.85.825.001.495-.33.79-.802.802-1.096.03-2.194.032-3.289-.004-.47-.015-.79-.317-.78-.819.01-.495.32-.773.802-.8.535-.029 1.073-.006 1.61-.006v-.003zm49.036-.006c-.28 0-.562.016-.84-.005-.491-.037-.78-.313-.783-.809-.004-.467.278-.755.729-.785.58-.04 1.168-.043 1.748-.004.484.033.776.335.747.838-.03.498-.342.745-.83.764-.257.01-.514.002-.771.001zm-1.638 10.618c0 .233.006.467 0 .7-.016.541-.246.912-.831.914-.553.002-.786-.361-.81-.862-.024-.49-.019-.982-.002-1.472.018-.507.266-.878.797-.887.565-.01.828.359.844.906.008.233.002.467.002.7z"/><path d="M15.485 10.79c-.001.28.022.562-.006.838-.048.46-.323.721-.788.72-.464 0-.76-.258-.787-.719-.033-.58-.092-1.182.025-1.74.062-.297.437-.672.734-.741.458-.108.778.237.818.733.024.301.005.606.004.909zm-6.491-.108c0-.28-.099-.617.023-.826.174-.298.49-.66.781-.694.23-.028.69.363.739.626.113.608.072 1.253.03 1.88-.03.462-.354.701-.816.68-.464-.023-.723-.298-.757-.757-.021-.302-.004-.606-.004-.91h.004zm45.742.058c0-.303-.101-.662.026-.895.163-.298.495-.654.785-.684.232-.023.683.372.732.637.11.609.11 1.265 0 1.875-.047.262-.447.582-.74.65-.437.102-.746-.212-.797-.675-.032-.3-.006-.605-.006-.908zm6.487-.002c0 .303.03.61-.007.909-.056.455-.361.778-.8.676-.292-.068-.688-.385-.74-.649a4.767 4.767 0 01-.008-1.803c.057-.29.452-.661.75-.724.46-.096.77.255.806.752.02.278.004.56.004.839h-.005z"/></symbol><symbol viewBox="0 0 30 30" id="search" xmlns="http://www.w3.org/2000/svg"><path d="M25.358 23.793l4.33 4.328a1.109 1.109 0 01-1.567 1.568l-4.33-4.33a14.413 14.413 0 111.567-1.569v.003zm-10.945 2.816a12.196 12.196 0 100-24.391 12.196 12.196 0 000 24.39z"/></symbol><symbol viewBox="0 0 20 19" id="star" xmlns="http://www.w3.org/2000/svg"><path d="M18.655 6.36l-5.535-.589L10.764.707c-.117-.353-.589-.589-.942-.589s-.825.236-.943.59L6.524 5.77l-5.536.59c-.47 0-.706.353-.942.706-.117.353 0 .825.236 1.06l4.123 3.77-1.179 5.535c-.117.353.118.825.471 1.06.236.235.472.353.59.353.235 0 .353 0 .47-.117L9.704 15.9l4.829 2.826a.906.906 0 001.178-.117c.353-.236.47-.706.47-1.06l-1.177-5.536 4.123-3.769c.353-.236.47-.706.235-1.06 0-.471-.353-.707-.706-.825z"/></symbol><symbol viewBox="0 0 16 17" id="twitter" xmlns="http://www.w3.org/2000/svg"><path d="M5.026 15.955c6.038 0 9.341-5.003 9.341-9.334 0-.14 0-.282-.006-.422A6.684 6.684 0 0016 4.497c-.6.265-1.237.44-1.889.518a3.301 3.301 0 001.447-1.817 6.533 6.533 0 01-2.087.793 3.286 3.286 0 00-5.596 2.994 9.325 9.325 0 01-6.767-3.429 3.289 3.289 0 001.018 4.382A3.323 3.323 0 01.64 7.53v.045a3.288 3.288 0 002.632 3.218 3.204 3.204 0 01-.865.115 3.24 3.24 0 01-.614-.057 3.283 3.283 0 003.067 2.277 6.588 6.588 0 01-4.08 1.407A6.315 6.315 0 010 14.49a9.343 9.343 0 005.026 1.465z"/></symbol></svg>