<svg width="16" height="17" viewBox="0 0 16 17" fill="none" xmlns="http://www.w3.org/2000/svg">
<path d="M5.026 15.9553C11.064 15.9553 14.367 10.9523 14.367 6.62132C14.367 6.48132 14.367 6.33932 14.361 6.19932C15.0041 5.73381 15.5591 5.15747 16 4.49732C15.3993 4.76217 14.7628 4.93673 14.111 5.01532C14.7975 4.60496 15.3117 3.95929 15.558 3.19832C14.913 3.58045 14.207 3.84869 13.471 3.99132C12.9762 3.46434 12.3214 3.11524 11.6081 2.99808C10.8948 2.88092 10.1627 3.00224 9.52534 3.34326C8.88796 3.68427 8.38081 4.22595 8.08245 4.88438C7.78409 5.54281 7.71118 6.28125 7.875 6.98532C6.56974 6.91987 5.29282 6.58079 4.12704 5.99006C2.96127 5.39934 1.93268 4.57016 1.108 3.55632C0.68934 4.2794 0.561574 5.13472 0.750646 5.94859C0.939718 6.76245 1.43145 7.47385 2.126 7.93832C1.60554 7.92064 1.09652 7.78088 0.64 7.53032V7.57532C0.640897 8.3328 0.903307 9.06674 1.38287 9.65308C1.86244 10.2394 2.52975 10.6422 3.272 10.7933C2.99026 10.8709 2.69923 10.9096 2.407 10.9083C2.20098 10.9089 1.99538 10.8899 1.793 10.8513C2.00279 11.5034 2.41127 12.0735 2.96125 12.4818C3.51122 12.8901 4.17513 13.1162 4.86 13.1283C3.69656 14.0421 2.2594 14.5377 0.78 14.5353C0.519321 14.5364 0.258823 14.5214 0 14.4903C1.50151 15.4476 3.2453 15.9559 5.026 15.9553Z" fill="#4A8780"/>
</svg>
